<?xml version="1.0" encoding="utf-8"?>
<!-- Generator: Adobe Illustrator 19.0.0, SVG Export Plug-In . SVG Version: 6.00 Build 0)  -->
<svg version="1.1" id="Layer_1" xmlns="http://www.w3.org/2000/svg" xmlns:xlink="http://www.w3.org/1999/xlink" x="0px" y="0px"
	 viewBox="0 0 439.3 111.2" style="enable-background:new 0 0 439.3 111.2;" xml:space="preserve">
<g id="XMLID_2_">
	<path id="XMLID_3_" d="M10.7,100.1C3.6,92.7,0,82.8,0,70.6c0-12.2,3.6-22.1,10.8-29.5C18,33.7,27.2,30,38.6,30
		c9.5,0,17.4,2.3,23.6,6.8c6.2,4.5,10.4,11,12.6,19.3H57.3c-3-8.3-9.2-12.4-18.7-12.4c-6.7,0-12,2.4-15.9,7.1
		c-4,4.7-5.9,11.3-5.9,19.8c0,8.5,2,15.1,5.9,19.8c3.9,4.8,9.3,7.1,15.9,7.1c9.4,0,15.7-4.1,18.7-12.4h17.6
		c-2.3,8-6.6,14.4-12.9,19.1c-6.3,4.7-14.1,7.1-23.4,7.1C27.1,111.2,17.8,107.5,10.7,100.1z"/>
	<path id="XMLID_5_" d="M109.7,10.4c0,3-1,5.4-3,7.4s-4.5,3-7.4,3c-2.9,0-5.4-1-7.4-3s-3-4.5-3-7.4C89,7.5,90,5,92,3s4.4-3,7.4-3
		c2.9,0,5.4,1,7.4,3S109.7,7.5,109.7,10.4z M91.1,109.9V31.3h16.3v78.7H91.1z"/>
	<path id="XMLID_8_" d="M125.2,53.8c0-6.7,2.8-12.3,8.4-16.9c5.6-4.6,13-6.9,22.1-6.9s16.4,2.3,21.8,6.8c5.4,4.5,8.3,10.7,8.6,18.5
		h-16.7c-0.3-3.9-1.6-6.9-4.1-9.1c-2.4-2.2-5.8-3.3-10.2-3.3c-4.4,0-7.8,1-10.3,2.9c-2.5,2-3.7,4.5-3.7,7.7c0,3.2,1.6,5.7,4.7,7.5
		c3.1,1.8,7,3.1,11.5,4c4.5,0.9,9,1.9,13.6,3.1c4.5,1.2,8.4,3.5,11.5,6.8c3.1,3.3,4.7,7.7,4.7,13.2c0,6.9-2.9,12.4-8.6,16.7
		c-5.8,4.3-13.2,6.4-22.2,6.4c-9,0-16.4-2.2-22-6.6c-5.6-4.4-8.7-10.6-9.3-18.7h16.8c0.3,3.9,1.7,6.9,4.3,9.1
		c2.6,2.2,6.1,3.3,10.5,3.3c4.4,0,7.9-1,10.6-2.9c2.6-2,3.9-4.5,3.9-7.8c0-3.2-1.6-5.8-4.7-7.6c-3.1-1.8-7-3.2-11.5-4.1
		c-4.5-0.9-9-1.9-13.6-3.1c-4.5-1.2-8.4-3.4-11.5-6.5C126.8,63.3,125.2,59.1,125.2,53.8z"/>
	<path id="XMLID_10_" d="M205,109.9V4.3h16.3v105.7H205z"/>
	<path id="XMLID_12_" d="M275.9,111.2c-11.4,0-20.7-3.7-27.8-11.1c-7.1-7.4-10.7-17.3-10.7-29.6s3.6-22.1,10.9-29.5
		c7.2-7.4,16.6-11.1,28.1-11.1c11.5,0,20.8,3.5,27.9,10.6c7.1,7.1,10.7,16.3,10.7,27.8c0,2.8-0.2,5.3-0.6,7.7H254
		c0.4,6.6,2.6,11.8,6.6,15.6c4,3.9,9.1,5.8,15.2,5.8c8.9,0,15.1-3.7,18.7-11h17.6c-2.4,7.2-6.7,13.2-13,17.8
		C292.9,108.9,285.1,111.2,275.9,111.2z M291.4,49.5c-4.2-3.9-9.3-5.8-15.3-5.8s-11,1.9-15.1,5.8c-4,3.9-6.4,9-6.9,15.5h43.7
		C297.8,58.5,295.6,53.3,291.4,49.5z"/>
	<path id="XMLID_15_" d="M347.1,31.3v12.4c5.2-9.1,13.6-13.7,25.1-13.7c8.9,0,16.2,3,21.9,8.9c5.8,5.9,8.6,14.1,8.6,24.7v46.4h-16.1
		V66c0-7-1.8-12.4-5.3-16.2c-3.5-3.8-8.3-5.6-14.4-5.6c-6.1,0-10.9,1.9-14.5,5.6c-3.6,3.8-5.4,9.2-5.4,16.2v44h-16.3V31.3H347.1z"/>
	<path id="XMLID_17_" d="M436.5,107.2c-1.9,1.9-4.2,2.8-7,2.8c-2.8,0-5.1-1-6.9-2.9c-1.9-1.9-2.8-4.2-2.8-6.9s0.9-5,2.8-6.9
		c1.9-1.9,4.2-2.9,6.9-2.9c2.8,0,5.1,1,7,2.9c1.9,1.9,2.9,4.2,2.9,7C439.3,103,438.4,105.3,436.5,107.2z"/>
</g>
</svg>
